<svg width="160" height="160" viewBox="0 0 160 160" fill="none" xmlns="http://www.w3.org/2000/svg">
<rect width="160" height="160" fill="white"/>
<path d="M29.0719 107.804C28.4719 107.132 27.5479 106.52 26.2999 105.968C25.0519 105.416 23.6599 105.14 22.1239 105.14C20.1559 105.14 18.7039 105.512 17.7679 106.256C16.8319 107 16.3639 108.02 16.3639 109.316C16.3639 110.228 16.6039 110.948 17.0839 111.476C17.5639 112.004 18.2959 112.436 19.2799 112.772C20.2879 113.108 21.5599 113.456 23.0959 113.816C24.8719 114.2 26.4079 114.668 27.7039 115.22C28.9999 115.772 29.9959 116.516 30.6919 117.452C31.3879 118.364 31.7359 119.588 31.7359 121.124C31.7359 122.756 31.3279 124.1 30.5119 125.156C29.6959 126.212 28.5799 126.992 27.1639 127.496C25.7719 128 24.1999 128.252 22.4479 128.252C18.4639 128.252 14.9959 127.052 12.0439 124.652L13.5919 121.916C14.1199 122.444 14.8279 122.972 15.7159 123.5C16.6279 124.028 17.6599 124.472 18.8119 124.832C19.9879 125.168 21.2239 125.336 22.5199 125.336C24.3439 125.336 25.7599 125.012 26.7679 124.364C27.7759 123.692 28.2799 122.72 28.2799 121.448C28.2799 120.488 27.9919 119.72 27.4159 119.144C26.8639 118.568 26.0359 118.088 24.9319 117.704C23.8279 117.32 22.4839 116.936 20.8999 116.552C19.1719 116.12 17.7199 115.652 16.5439 115.148C15.3679 114.62 14.4799 113.936 13.8799 113.096C13.3039 112.256 13.0159 111.164 13.0159 109.82C13.0159 108.188 13.4119 106.808 14.2039 105.68C14.9959 104.552 16.0879 103.7 17.4799 103.124C18.8719 102.548 20.4439 102.26 22.1959 102.26C23.8999 102.26 25.4479 102.524 26.8399 103.052C28.2559 103.58 29.5039 104.288 30.5839 105.176L29.0719 107.804Z" fill="#053146"/>
<path d="M44.8619 127.064C44.4779 127.232 43.8659 127.472 43.0259 127.784C42.2099 128.096 41.2979 128.252 40.2899 128.252C39.1379 128.252 38.1419 127.94 37.3019 127.316C36.4619 126.668 36.0419 125.672 36.0419 124.328V111.692H33.4859V109.208H36.0419V102.944H39.2099V109.208H43.4219V111.692H39.2099V123.356C39.2579 124.028 39.4859 124.532 39.8939 124.868C40.3019 125.18 40.7819 125.336 41.3339 125.336C41.9579 125.336 42.5339 125.228 43.0619 125.012C43.5899 124.796 43.9379 124.64 44.1059 124.544L44.8619 127.064Z" fill="#053146"/>
<path d="M46.3221 122.564C46.3221 121.364 46.6581 120.332 47.3301 119.468C48.0261 118.58 48.9741 117.896 50.1741 117.416C51.3741 116.936 52.7661 116.696 54.3501 116.696C55.1901 116.696 56.0781 116.768 57.0141 116.912C57.9501 117.032 58.7781 117.224 59.4981 117.488V116.12C59.4981 114.68 59.0661 113.552 58.2021 112.736C57.3381 111.896 56.1141 111.476 54.5301 111.476C53.4981 111.476 52.5021 111.668 51.5421 112.052C50.6061 112.412 49.6101 112.94 48.5541 113.636L47.4021 111.404C48.6261 110.564 49.8501 109.94 51.0741 109.532C52.2981 109.1 53.5701 108.884 54.8901 108.884C57.2901 108.884 59.1861 109.556 60.5781 110.9C61.9701 112.22 62.6661 114.068 62.6661 116.444V124.4C62.6661 125.144 63.0021 125.528 63.6741 125.552V128C63.3621 128.048 63.0861 128.084 62.8461 128.108C62.6301 128.132 62.4501 128.144 62.3061 128.144C61.5621 128.144 60.9981 127.94 60.6141 127.532C60.2541 127.124 60.0501 126.692 60.0021 126.236L59.9301 125.048C59.1141 126.104 58.0461 126.92 56.7261 127.496C55.4061 128.072 54.0981 128.36 52.8021 128.36C51.5541 128.36 50.4381 128.108 49.4541 127.604C48.4701 127.076 47.7021 126.38 47.1501 125.516C46.5981 124.628 46.3221 123.644 46.3221 122.564ZM58.5621 123.896C58.8501 123.56 59.0781 123.224 59.2461 122.888C59.4141 122.528 59.4981 122.228 59.4981 121.988V119.648C57.9621 119.048 56.3781 118.748 54.7461 118.748C53.1381 118.748 51.8301 119.072 50.8221 119.72C49.8381 120.344 49.3461 121.208 49.3461 122.312C49.3461 122.912 49.5021 123.5 49.8141 124.076C50.1501 124.628 50.6301 125.084 51.2541 125.444C51.9021 125.804 52.6941 125.984 53.6301 125.984C54.6141 125.984 55.5501 125.792 56.4381 125.408C57.3261 125 58.0341 124.496 58.5621 123.896Z" fill="#053146"/>
<path d="M76.0477 128.36C74.1757 128.36 72.5197 127.916 71.0797 127.028C69.6397 126.116 68.5117 124.916 67.6957 123.428C66.8797 121.94 66.4717 120.32 66.4717 118.568C66.4717 116.792 66.8677 115.172 67.6597 113.708C68.4517 112.244 69.5677 111.08 71.0077 110.216C72.4477 109.328 74.1157 108.884 76.0117 108.884C77.8597 108.884 79.4677 109.304 80.8357 110.144C82.2277 110.96 83.2597 112.064 83.9317 113.456L80.8357 114.428C80.3557 113.54 79.6837 112.856 78.8197 112.376C77.9557 111.872 76.9957 111.62 75.9397 111.62C74.7877 111.62 73.7317 111.92 72.7717 112.52C71.8357 113.12 71.0917 113.948 70.5397 115.004C69.9877 116.036 69.7117 117.224 69.7117 118.568C69.7117 119.888 69.9877 121.088 70.5397 122.168C71.1157 123.224 71.8717 124.064 72.8077 124.688C73.7677 125.312 74.8237 125.624 75.9757 125.624C76.7197 125.624 77.4277 125.492 78.0997 125.228C78.7957 124.964 79.3957 124.616 79.8997 124.184C80.4277 123.728 80.7877 123.236 80.9797 122.708L84.0757 123.644C83.5237 125.012 82.5157 126.14 81.0517 127.028C79.6117 127.916 77.9437 128.36 76.0477 128.36Z" fill="#053146"/>
<path d="M100.913 128L94.3973 118.856L90.8333 122.204V128H87.6653V101.72H90.8333V118.892L100.553 109.244H103.973L96.4853 117.02L104.333 128H100.913Z" fill="#053146"/>
<path d="M124.928 125.12V128H107.576V102.44H124.604V105.32H110.816V113.6H122.804V116.3H110.816V125.12H124.928Z" fill="#053146"/>
<path d="M127.258 118.64C127.258 116.864 127.618 115.244 128.338 113.78C129.082 112.292 130.09 111.104 131.362 110.216C132.658 109.328 134.134 108.884 135.79 108.884C137.302 108.884 138.658 109.28 139.858 110.072C141.058 110.864 141.994 111.824 142.666 112.952V101.72H145.834V124.4C145.834 125.144 146.17 125.528 146.842 125.552V128C146.242 128.096 145.774 128.144 145.438 128.144C144.814 128.144 144.262 127.928 143.782 127.496C143.326 127.064 143.098 126.584 143.098 126.056V124.472C142.354 125.672 141.358 126.62 140.11 127.316C138.862 128.012 137.566 128.36 136.222 128.36C134.494 128.36 132.946 127.916 131.578 127.028C130.234 126.116 129.178 124.928 128.41 123.464C127.642 121.976 127.258 120.368 127.258 118.64ZM142.666 121.412V116.012C142.378 115.196 141.91 114.464 141.262 113.816C140.614 113.144 139.882 112.616 139.066 112.232C138.274 111.824 137.482 111.62 136.69 111.62C135.466 111.62 134.386 111.956 133.45 112.628C132.538 113.3 131.818 114.176 131.29 115.256C130.786 116.336 130.534 117.476 130.534 118.676C130.534 119.924 130.81 121.076 131.362 122.132C131.938 123.188 132.718 124.04 133.702 124.688C134.686 125.312 135.778 125.624 136.978 125.624C137.746 125.624 138.538 125.444 139.354 125.084C140.17 124.7 140.89 124.184 141.514 123.536C142.138 122.888 142.522 122.18 142.666 121.412Z" fill="#053146"/>
<path d="M57.0642 27.4891C59.0642 25.9891 80.0526 22.9503 82.5526 24.3668C84.3175 25.3669 87.1277 33.0601 91.5526 37.3668C97.6277 43.2798 109.564 47.9891 109.564 47.9891C109.564 47.9891 88.5526 56.8668 83.5526 56.8668C79.5526 56.8668 72.0526 51.3669 66.5526 45.8669C60.9867 40.301 55.0642 28.9891 57.0642 27.4891Z" fill="#053146"/>
<path d="M49.0643 50.4891C50.241 48.7241 59.6363 47.2897 60.5643 47.4891C61.0908 47.6023 66.9133 52.4242 71.1314 55.5444C76.0457 59.1796 81.0643 61.4891 85.1314 61.4891C87.6314 61.4891 105.564 54.4891 105.564 54.4891L110.564 56.4891C110.564 56.4891 87.5643 65.4891 85.1314 65.4891C83.5643 65.4891 72.6749 62.0072 65.5643 58.9891C58.965 56.1881 48.0643 51.9891 49.0643 50.4891Z" fill="#053146"/>
<path d="M60.5693 62.9891C61.4675 62.989 81.4627 69.4891 85.0645 69.4891C87.9676 69.4891 106.064 63.4891 106.064 63.4891L111.067 64.9891C111.067 64.9891 86.9675 72.4891 85.9675 72.4891C83.9675 72.4891 48.7224 66.1782 49.067 65.4891C49.567 64.489 59.4675 62.9892 60.5693 62.9891Z" fill="#053146"/>
</svg>
